<svg xmlns="http://www.w3.org/2000/svg" width="15" height="20" fill="none" viewBox="0 0 15 20">
	<path fill="#FFDA00" d="M7.5 0C3.364 0 0 3.154 0 7.031c0 1.31.387 2.589 1.12 3.698l5.953 8.994a.635.635 0 0 0 .531.277h.005a.634.634 0 0 0 .531-.285l5.802-9.081A6.694 6.694 0 0 0 15 7.03C15 3.154 11.636 0 7.5 0zm5.37 10.032l-5.275 8.256-5.413-8.177a5.585 5.585 0 0 1-.94-3.08c0-3.23 2.812-5.867 6.258-5.867s6.254 2.636 6.254 5.867a5.58 5.58 0 0 1-.885 3.001z"/>
	<path fill="#FFDA00" d="M7.5 3.516c-2.068 0-3.75 1.577-3.75 3.515 0 1.926 1.655 3.516 3.75 3.516 2.121 0 3.75-1.61 3.75-3.516 0-1.938-1.682-3.515-3.75-3.515zm0 5.867c-1.386 0-2.508-1.056-2.508-2.352 0-1.292 1.13-2.351 2.508-2.351 1.378 0 2.504 1.059 2.504 2.351 0 1.277-1.096 2.352-2.504 2.352z"/>
</svg>