<svg xmlns="http://www.w3.org/2000/svg" width="54" height="48" viewBox="0 0 54 48">
	<path fill="#000" d="M47.431 22.168c-.057-.8-.747-1.4-1.543-1.343a1.449 1.449 0 0 0-1.335 1.551c.035.494.053 1 .053 1.506 0 11.568-9.358 20.98-20.86 20.98-11.503 0-20.86-9.412-20.86-20.98 0-11.569 9.357-20.98 20.86-20.98a20.59 20.59 0 0 1 12.51 4.193 1.438 1.438 0 0 0 2.02-.289c.48-.64.351-1.55-.286-2.031A23.443 23.443 0 0 0 23.746 0C10.652 0 0 10.713 0 23.882 0 37.05 10.652 47.763 23.746 47.763c13.093 0 23.746-10.713 23.746-23.881 0-.575-.02-1.151-.061-1.714z"/>
	<path fill="#000" d="M52.354 3.28a5.613 5.613 0 0 0-7.96 0L23.605 24.186l-7.37-7.412a5.613 5.613 0 0 0-7.96 0c-2.194 2.207-2.194 5.799 0 8.006l12.693 12.765a3.707 3.707 0 0 0 2.637 1.097c.955 0 1.91-.366 2.638-1.097l26.111-26.261c2.195-2.207 2.195-5.799 0-8.006zm-2.04 5.953L24.202 35.494a.842.842 0 0 1-1.194 0L10.316 22.729a2.773 2.773 0 0 1 0-3.901 2.726 2.726 0 0 1 1.94-.807c.702 0 1.405.269 1.94.807l7.58 7.624a2.562 2.562 0 0 0 1.83.762c.69 0 1.34-.27 1.828-.762l21-21.12a2.735 2.735 0 0 1 3.88 0 2.773 2.773 0 0 1 0 3.9z"/>
</svg>