<svg xmlns="http://www.w3.org/2000/svg" width="14" height="11" fill="none" viewBox="0 0 14 11">
	<path fill="#FFDA00" d="M12.29 0H1.713C.768 0 0 .74 0 1.65v6.967c0 .91.768 1.65 1.712 1.65h10.576c.944 0 1.712-.74 1.712-1.65V1.652C14.003.742 13.235 0 12.29 0zm.93 8.617c0 .494-.416.896-.93.896H1.713c-.513 0-.93-.402-.93-.896V1.652c0-.494.417-.896.93-.896h10.576c.513 0 .93.402.93.896v6.965h.003z"/>
	<path fill="#FFDA00" d="M8.83 5.047l3.423-2.959a.37.37 0 0 0 .03-.533.403.403 0 0 0-.554-.028L7.007 5.61l-.92-.793a.574.574 0 0 0-.07-.061L2.268 1.524a.4.4 0 0 0-.553.03.367.367 0 0 0 .032.534L5.21 5.072l-3.45 3.112a.369.369 0 0 0-.017.534.4.4 0 0 0 .553.02L5.8 5.579l.95.818a.4.4 0 0 0 .522-.003l.976-.843L11.73 8.74c.075.07.174.103.27.103.104 0 .205-.039.283-.117a.369.369 0 0 0-.014-.533L8.829 5.047z"/>
</svg>