<svg xmlns="http://www.w3.org/2000/svg" width="59" height="59" viewBox="0 0 59 59">
	<path fill="#000" d="M26.156 19.253c.108.216.216.432.324.593.108.162.27.324.377.486.162.162.324.323.54.485.162.108.377.27.647.324.216.108.431.162.701.216.27.053.485.053.701.053.216 0 .485 0 .701-.053.216-.054.432-.108.593-.216h.054c.216-.108.432-.216.648-.378.161-.108.323-.27.485-.431l.054-.054c.162-.162.27-.324.377-.485.108-.162.216-.324.27-.54 0-.054 0-.054.054-.108.108-.215.162-.485.216-.7.054-.216.054-.486.054-.702 0-.216 0-.485-.054-.7-.054-.217-.108-.432-.216-.702a3.06 3.06 0 0 0-.647-.97l-.108-.109c-.162-.161-.324-.27-.54-.431-.215-.108-.377-.216-.593-.324-.215-.108-.431-.161-.647-.215a3.317 3.317 0 0 0-.7-.054c-.217 0-.486 0-.702.054-.216.054-.431.107-.647.215h-.054a5.883 5.883 0 0 0-.593.324c-.216.162-.378.27-.54.431-.161.162-.323.324-.431.486-.108.162-.216.377-.324.593a3.04 3.04 0 0 0-.215.647c-.054.27-.054.486-.054.701 0 .216 0 .486.054.701.054.432.161.648.215.863zM33.653 38.992h-1.24V25.779c0-.755-.594-1.402-1.403-1.402h-5.663c-.755 0-1.402.593-1.402 1.402v2.912c0 .755.593 1.402 1.402 1.402h1.133v8.953h-1.133c-.755 0-1.402.593-1.402 1.402v2.912c0 .755.593 1.402 1.402 1.402h8.306c.755 0 1.402-.593 1.402-1.402v-2.912c0-.81-.647-1.456-1.402-1.456z"/>
	<path fill="#000" d="M29.5 0C13.213 0 0 13.213 0 29.5S13.213 59 29.5 59 59 45.787 59 29.5 45.787 0 29.5 0zm0 55.117C15.37 55.117 3.883 43.63 3.883 29.5S15.37 3.883 29.5 3.883 55.117 15.37 55.117 29.5 43.63 55.117 29.5 55.117z"/>
</svg>