<svg xmlns="http://www.w3.org/2000/svg" width="60" height="49" viewBox="0 0 60 49">
	<path fill="#000" d="M12.914 42.343c1.12 0 2.028-.9 2.028-2.012a2.02 2.02 0 0 0-2.028-2.012c-1.12 0-2.027.901-2.027 2.012a2.02 2.02 0 0 0 2.027 2.012z"/>
	<path fill="#000" d="M58.783 29.476c0-.989-.308-1.907-.834-2.666A4.707 4.707 0 0 0 60 22.93c0-2.602-2.134-4.72-4.756-4.72H42.741l.792-1.761a19.826 19.826 0 0 0 1.754-8.136l.007-3.462C45.294 2.176 43.101 0 40.406 0a4.87 4.87 0 0 0-4.534 3.034c-.033.082-1.17 3.408-1.17 3.408a17.186 17.186 0 0 1-5.263 7.587l-5.8 4.815h-3.353v-1.519c0-1.595-1.308-2.894-2.916-2.894H2.916C1.308 14.431 0 15.73 0 17.325v28.203c0 1.596 1.308 2.894 2.916 2.894H17.37c1.608 0 2.916-1.298 2.916-2.894v-2.265h1.83l1.818.872a32.264 32.264 0 0 0 13.871 3.152H51.594c2.623 0 4.756-2.117 4.756-4.72 0-.988-.308-1.907-.834-2.666a4.707 4.707 0 0 0 2.05-3.879c0-.989-.308-1.907-.834-2.667a4.708 4.708 0 0 0 2.051-3.879zM17.37 45.528H2.916V17.325H17.37l.002 28.203h-.002zm37.874-20.771H53.17c-.805 0-1.458.647-1.458 1.447 0 .799.653 1.447 1.458 1.447h.859c1.014 0 1.84.819 1.84 1.826a1.835 1.835 0 0 1-1.84 1.825h-2.075c-.805 0-1.458.648-1.458 1.447 0 .8.653 1.447 1.458 1.447h.858c1.015 0 1.84.82 1.84 1.826a1.835 1.835 0 0 1-1.84 1.826h-2.075c-.805 0-1.458.648-1.458 1.447 0 .8.653 1.447 1.458 1.447h.859c1.014 0 1.84.82 1.84 1.826a1.835 1.835 0 0 1-1.84 1.825H37.805c-4.339 0-8.696-.99-12.602-2.864l-2.119-1.016a1.467 1.467 0 0 0-.634-.144h-2.165v-18.63h3.883c.342 0 .673-.12.935-.338l6.206-5.152a20.077 20.077 0 0 0 6.149-8.866l1.167-3.375a1.965 1.965 0 0 1 1.78-1.114c1.087 0 1.972.878 1.972 1.957l-.007 3.456a16.968 16.968 0 0 1-1.501 6.963l-1.699 3.78a1.43 1.43 0 0 0-.062 1.01c.008.029.323 1.045 1.4 1.045h14.735c1.015 0 1.84.819 1.84 1.826a1.835 1.835 0 0 1-1.84 1.826z"/>
</svg>