<svg xmlns="http://www.w3.org/2000/svg" width="17" height="15" viewBox="0 0 17 15">
	<path fill="#000" d="M14.247 11.448a.548.548 0 0 0-.764.103c-.035.046-.07.09-.107.135-.547.663-1.283 1.202-2.192 1.602a.431.431 0 0 0-.013.006c-1.434.678-3.111.77-4.72.262-1.413-.456-2.562-1.338-3.416-2.623a6.284 6.284 0 0 1-.991-3.26V7.59h.668a.28.28 0 0 0 .2-.477L1.696 5.908a.284.284 0 0 0-.4 0L.084 7.112a.28.28 0 0 0 .2.477h.67a7.339 7.339 0 0 0 1.16 3.922l.008.01c.994 1.498 2.337 2.528 3.995 3.063a7.967 7.967 0 0 0 2.402.376c1.084 0 2.146-.23 3.115-.688 1.137-.502 2.05-1.197 2.718-2.067a.537.537 0 0 0-.104-.757zM16.717 7.478h-.67A7.44 7.44 0 0 0 15.02 3.71a7.577 7.577 0 0 0-2.347-2.464A7.597 7.597 0 0 0 9.414.054 7.64 7.64 0 0 0 5.63.56a7.579 7.579 0 0 0-3 2.22.537.537 0 0 0 .08.759.548.548 0 0 0 .767-.08 6.488 6.488 0 0 1 2.568-1.9 6.539 6.539 0 0 1 3.24-.432c.99.119 1.953.47 2.785 1.018a6.488 6.488 0 0 1 2.01 2.11 6.363 6.363 0 0 1 .879 3.223h-.67a.28.28 0 0 0-.2.477l1.215 1.204c.11.11.289.11.4 0l1.214-1.204a.28.28 0 0 0-.2-.477z"/>
</svg>