<svg width="218" height="50" viewBox="0 0 218 50" xmlns="http://www.w3.org/2000/svg">
<path d="M0 0H23.1058V23.1481H0V0Z" fill="#FFDA00"/>
<path d="M26.8027 0H49.9085V23.1481H26.8027V0Z" fill="black"/>
<path d="M26.8027 26.8518H49.9085V50H26.8027V26.8518Z" fill="#FFDA00"/>
<path d="M0 26.8518H23.1058V50H0V26.8518Z" fill="black"/>
<path d="M6.9834 18.0556H16.1227V15.4781H10.1514V12.7787H15.6554V10.1948H10.1514V7.50185H16.1227V4.92432H6.9834V18.0556Z" fill="black"/>
<path d="M41.0413 36.0654H44.2477C43.9277 33.4494 41.5981 31.5964 38.5645 31.5964C35.0636 31.5964 32.2988 34.065 32.2988 38.3609C32.2988 42.5157 34.846 45.0868 38.6029 45.0868C41.9757 45.0868 44.3885 42.9902 44.3885 39.4637V37.7261H38.7373V40.0407H41.3357C41.3037 41.4257 40.3437 42.3041 38.6285 42.3041C36.6637 42.3041 35.5308 40.8486 35.5308 38.3224C35.5308 35.8154 36.7277 34.3791 38.6285 34.3791C39.8957 34.3791 40.7597 35.0011 41.0413 36.0654Z" fill="black"/>
<path fill-rule="evenodd" clip-rule="evenodd" d="M33.0415 7.87049C33.0415 7.87451 33.0415 7.89236 33.0602 7.93161C33.0809 7.97503 33.1256 8.04606 33.2169 8.13872C33.4058 8.33048 33.7365 8.55627 34.2362 8.77085C35.2317 9.19824 36.6874 9.49086 38.3559 9.49086C40.0243 9.49086 41.4801 9.19824 42.4755 8.77085C42.9752 8.55627 43.3059 8.33048 43.4948 8.13872C43.5861 8.04606 43.6308 7.97503 43.6515 7.93161C43.6702 7.89236 43.6702 7.87461 43.6702 7.87059C43.6702 7.86657 43.6702 7.84861 43.6515 7.80937C43.6308 7.76595 43.5861 7.69492 43.4948 7.60226C43.3059 7.41049 42.9752 7.18471 42.4755 6.97013C41.4801 6.54273 40.0243 6.25012 38.3559 6.25012C36.6874 6.25012 35.2317 6.54273 34.2362 6.97013C33.7365 7.18471 33.4058 7.41049 33.2169 7.60226C33.1256 7.69492 33.0809 7.76595 33.0602 7.80937C33.0415 7.84861 33.0415 7.86647 33.0415 7.87049ZM33.3261 4.84248C34.6722 4.26451 36.4513 3.9353 38.3559 3.9353C40.2604 3.9353 42.0395 4.26451 43.3857 4.84248C44.0567 5.13058 44.6735 5.50335 45.1393 5.97625C45.6101 6.45412 45.9808 7.09556 45.9808 7.87049C45.9808 8.64541 45.6101 9.28686 45.1393 9.76473C44.6735 10.2376 44.0567 10.6104 43.3857 10.8985C42.0395 11.4765 40.2604 11.8057 38.3559 11.8057C36.4513 11.8057 34.6722 11.4765 33.3261 10.8985C32.6551 10.6104 32.0382 10.2376 31.5724 9.76473C31.1016 9.28686 30.731 8.64541 30.731 7.87049C30.731 7.09556 31.1016 6.45412 31.5724 5.97625C32.0382 5.50335 32.6551 5.13058 33.3261 4.84248Z" fill="#FFDA00"/>
<path fill-rule="evenodd" clip-rule="evenodd" d="M33.0415 11.5336C33.0415 11.5337 33.0415 11.5338 33.0415 11.5338C33.0415 11.5339 33.0415 11.5339 33.0415 11.534C33.0415 11.5399 33.0407 11.6362 33.2227 11.8237C33.4124 12.019 33.7431 12.2478 34.2418 12.4651C35.2356 12.898 36.6893 13.1945 38.3559 13.1945C40.0224 13.1945 41.4761 12.898 42.4699 12.4651C42.9687 12.2478 43.2993 12.019 43.489 11.8237C43.6711 11.6362 43.6702 11.5399 43.6702 11.534L43.6702 11.5338L43.6702 11.5336C43.6702 11.5263 43.6705 11.4527 43.5443 11.3047C43.4098 11.1468 43.1667 10.9503 42.7807 10.7501L43.8427 8.69434C44.8819 9.23312 45.9808 10.1613 45.9808 11.5338C45.9808 12.3084 45.6155 12.9534 45.1452 13.4378C44.68 13.9168 44.0633 14.2952 43.3912 14.5879C42.0435 15.175 40.2624 15.5093 38.3559 15.5093C36.4494 15.5093 34.6682 15.175 33.3205 14.5879C32.6485 14.2952 32.0317 13.9168 31.5666 13.4378C31.0962 12.9534 30.731 12.3084 30.731 11.5338C30.731 10.1613 31.8299 9.23312 32.869 8.69434L33.931 10.7501C33.545 10.9503 33.3019 11.1468 33.1674 11.3047C33.0412 11.4527 33.0415 11.5263 33.0415 11.5336Z" fill="#FFDA00"/>
<path fill-rule="evenodd" clip-rule="evenodd" d="M33.0415 15.2372C33.0415 15.2373 33.0415 15.2374 33.0415 15.2374C33.0415 15.2375 33.0415 15.2376 33.0415 15.2376C33.0415 15.2435 33.0407 15.3398 33.2227 15.5273C33.4124 15.7226 33.7431 15.9514 34.2418 16.1687C35.2356 16.6016 36.6893 16.8981 38.3559 16.8981C40.0224 16.8981 41.4761 16.6016 42.4699 16.1687C42.9687 15.9514 43.2993 15.7226 43.489 15.5273C43.6711 15.3398 43.6702 15.2435 43.6702 15.2376L43.6702 15.2374L43.6702 15.2372C43.6702 15.2299 43.6705 15.1564 43.5443 15.0083C43.4098 14.8504 43.1667 14.6539 42.7807 14.4538L43.8427 12.3979C44.8819 12.9367 45.9808 13.8649 45.9808 15.2374C45.9808 16.012 45.6155 16.657 45.1452 17.1414C44.68 17.6204 44.0633 17.9988 43.3912 18.2915C42.0435 18.8786 40.2624 19.2129 38.3559 19.2129C36.4494 19.2129 34.6682 18.8786 33.3205 18.2915C32.6485 17.9988 32.0317 17.6204 31.5666 17.1414C31.0962 16.657 30.731 16.012 30.731 15.2374C30.731 13.8649 31.8299 12.9367 32.869 12.3979L33.931 14.4538C33.545 14.6539 33.3019 14.8504 33.1674 15.0083C33.0412 15.1564 33.0415 15.2299 33.0415 15.2372Z" fill="#FFDA00"/>
<path fill-rule="evenodd" clip-rule="evenodd" d="M11.5527 31.448L18.6939 36.5581L17.3509 38.4418L11.5527 34.2927L5.75462 38.4418L4.41162 36.5581L11.5527 31.448Z" fill="#FFDA00"/>
<path fill-rule="evenodd" clip-rule="evenodd" d="M11.5527 37.9294L18.6939 43.0396L17.3509 44.9232L11.5527 40.7741L5.75462 44.9232L4.41162 43.0396L11.5527 37.9294Z" fill="#FFDA00"/>
<path d="M62.5767 23.6112H74.8411V20.4418H66.4137V16.1005H74.1765V12.9311H66.4137V8.59872H74.8057V5.42933H62.5767V23.6112Z" fill="black"/>
<path d="M81.6667 23.8686C83.6783 23.8686 84.981 22.9897 85.6456 21.7202H85.7519V23.6112H89.332V14.4137C89.332 11.1644 86.5849 9.79723 83.5543 9.79723C80.2932 9.79723 78.1487 11.3597 77.6259 13.8455L81.1173 14.1296C81.3743 13.2241 82.1807 12.5582 83.5365 12.5582C84.8215 12.5582 85.557 13.2063 85.557 14.3249V14.3782C85.557 15.2571 84.6265 15.3725 82.2605 15.6033C79.5665 15.8519 77.1473 16.7575 77.1473 19.8026C77.1473 22.5014 79.0703 23.8686 81.6667 23.8686ZM82.7479 21.2585C81.587 21.2585 80.754 20.717 80.754 19.6783C80.754 18.6129 81.6313 18.0891 82.9605 17.9027C83.7847 17.7873 85.1316 17.592 85.5836 17.2901V18.7372C85.5836 20.1665 84.405 21.2585 82.7479 21.2585Z" fill="black"/>
<path d="M103.586 13.8633C103.249 11.3509 101.229 9.79723 97.7904 9.79723C94.3078 9.79723 92.0126 11.413 92.0215 14.0408C92.0126 16.0827 93.2976 17.4055 95.956 17.9382L98.3132 18.4087C99.5007 18.6484 100.041 19.0835 100.059 19.767C100.041 20.5749 99.1639 21.152 97.8436 21.152C96.4966 21.152 95.6016 20.5749 95.3712 19.4652L91.6582 19.6605C92.0126 22.2706 94.228 23.8775 97.8347 23.8775C101.362 23.8775 103.887 22.0753 103.896 19.3853C103.887 17.4144 102.602 16.2337 99.9615 15.6921L97.498 15.195C96.2308 14.9197 95.7611 14.4847 95.77 13.8278C95.7611 13.011 96.6827 12.4783 97.8524 12.4783C99.1639 12.4783 99.9438 13.1974 100.13 14.0763L103.586 13.8633Z" fill="black"/>
<path d="M108.604 28.6982C111.413 28.6982 112.91 27.2688 113.673 25.0849L118.963 9.99254L114.966 9.97479L112.122 19.989H111.98L109.162 9.97479H105.192L110.075 24.0018L109.853 24.5788C109.322 25.8129 108.409 25.9016 107.08 25.4844L106.229 28.3164C106.769 28.5384 107.647 28.6982 108.604 28.6982Z" fill="black"/>
<path d="M138.775 11.3065H142.674C142.178 7.71094 139.015 5.18075 134.912 5.18075C130.117 5.18075 126.422 8.64311 126.422 14.538C126.422 20.2908 129.878 23.8597 134.991 23.8597C139.573 23.8597 142.843 20.9567 142.843 16.1715V13.881H135.248V16.7752H139.147C139.094 19.0302 137.561 20.4595 135.009 20.4595C132.129 20.4595 130.312 18.3022 130.312 14.5025C130.312 10.7205 132.2 8.58097 134.974 8.58097C136.95 8.58097 138.288 9.60192 138.775 11.3065Z" fill="black"/>
<path d="M149.535 23.8686C151.547 23.8686 152.85 22.9897 153.514 21.7202H153.621V23.6112H157.201V14.4137C157.201 11.1644 154.454 9.79723 151.423 9.79723C148.162 9.79723 146.017 11.3597 145.495 13.8455L148.986 14.1296C149.243 13.2241 150.049 12.5582 151.405 12.5582C152.69 12.5582 153.426 13.2063 153.426 14.3249V14.3782C153.426 15.2571 152.495 15.3725 150.129 15.6033C147.435 15.8519 145.016 16.7575 145.016 19.8026C145.016 22.5014 146.939 23.8686 149.535 23.8686ZM150.617 21.2585C149.456 21.2585 148.623 20.717 148.623 19.6783C148.623 18.6129 149.5 18.0891 150.829 17.9027C151.653 17.7873 153 17.592 153.452 17.2901V18.7372C153.452 20.1665 152.274 21.2585 150.617 21.2585Z" fill="black"/>
<path d="M160.129 23.6112H163.904V15.4258C163.904 13.9165 164.862 12.9134 166.12 12.9134C167.361 12.9134 168.194 13.7656 168.194 15.1062V23.6112H171.853V15.2837C171.853 13.8722 172.66 12.9134 174.033 12.9134C175.238 12.9134 176.142 13.668 176.142 15.1861V23.6112H179.909V14.4403C179.909 11.484 178.154 9.79723 175.62 9.79723C173.626 9.79723 172.075 10.8182 171.517 12.3807H171.375C170.941 10.8004 169.549 9.79723 167.68 9.79723C165.845 9.79723 164.454 10.7738 163.887 12.3807H163.727V9.97479H160.129V23.6112Z" fill="black"/>
<path d="M182.89 23.6112H186.665V9.97479H182.89V23.6112ZM184.787 8.21698C185.912 8.21698 186.834 7.35582 186.834 6.29936C186.834 5.25178 185.912 4.39062 184.787 4.39062C183.67 4.39062 182.749 5.25178 182.749 6.29936C182.749 7.35582 183.67 8.21698 184.787 8.21698Z" fill="black"/>
<path d="M193.465 15.7276C193.473 13.9698 194.519 12.94 196.043 12.94C197.559 12.94 198.471 13.9343 198.462 15.6033V23.6112H202.238V14.9286C202.238 11.7504 200.377 9.79723 197.541 9.79723C195.52 9.79723 194.058 10.7915 193.447 12.3807H193.287V9.97479H189.69V23.6112H193.465V15.7276Z" fill="black"/>
<path d="M211.345 28.9201C215.235 28.9201 218 27.1445 218 23.7443V9.97479H214.252V12.2653H214.11C213.605 11.1555 212.497 9.79723 210.22 9.79723C207.233 9.79723 204.708 12.1232 204.708 16.7663C204.708 21.3029 207.162 23.4158 210.228 23.4158C212.4 23.4158 213.614 22.3239 214.11 21.1964H214.269V23.6911C214.269 25.4755 213.073 26.2035 211.434 26.2035C209.768 26.2035 208.926 25.4755 208.616 24.7386L205.124 25.2092C205.576 27.2688 207.676 28.9201 211.345 28.9201ZM211.425 20.5749C209.573 20.5749 208.562 19.1012 208.562 16.7486C208.562 14.4315 209.555 12.8068 211.425 12.8068C213.259 12.8068 214.287 14.3604 214.287 16.7486C214.287 19.1545 213.241 20.5749 211.425 20.5749Z" fill="black"/>
<path d="M61.8745 44.4446H64.5842C66.1366 44.4446 66.9834 43.568 66.9834 42.3096C66.9834 41.0513 66.1366 40.2454 64.5842 40.2454H62.7495V37.9831H66.2354V37.2055H61.8745V44.4446ZM62.7495 43.6811V41.023H64.5842C65.5721 41.023 66.1225 41.6027 66.1225 42.2955C66.1225 43.0024 65.5721 43.6811 64.5842 43.6811H62.7495Z" fill="#333333"/>
<path d="M68.6225 37.2055V44.4446H69.4693L73.4068 38.7608H73.4773V44.4446H74.3523V37.2055H73.5056L69.5539 42.9034H69.4834V37.2055H68.6225Z" fill="#333333"/>
<path d="M76.3019 44.4446H77.1769V41.8006H78.7576C80.4405 41.8006 81.1991 40.7756 81.1991 39.496C81.1991 38.2164 80.4405 37.2055 78.7434 37.2055H76.3019V44.4446ZM77.1769 41.023V37.9831H78.7152C79.8901 37.9831 80.3382 38.6265 80.3382 39.496C80.3382 40.3655 79.8901 41.023 78.7293 41.023H77.1769Z" fill="#333333"/>
<path d="M87.0835 37.2055H86.2085V40.415H85.3335L83.4565 37.2055H82.3981L84.5432 40.6695L82.2005 44.4446H83.1884L85.1642 41.2351H86.2085V44.4446H87.0835V41.2351H88.1279L90.0896 44.4446H91.0916L88.7489 40.6837L90.9081 37.2055H89.8497L87.9726 40.415H87.0835V37.2055Z" fill="#333333"/>
<path d="M92.7334 44.4446L93.4602 42.3945H96.3815L97.1084 44.4446H98.0257L95.3725 37.2055H94.4692L91.816 44.4446H92.7334ZM93.7354 41.6168L94.8926 38.3508H94.9491L96.1063 41.6168H93.7354Z" fill="#333333"/>
<path d="M102.343 37.2055V44.4446H103.19L107.127 38.7608H107.198V44.4446H108.073V37.2055H107.226L103.274 42.9034H103.204V37.2055H102.343Z" fill="#333333"/>
<path d="M114.383 37.2055H110.022V44.4446H110.897V37.9831H114.383V37.2055Z" fill="#333333"/>
<path d="M115.936 44.4446H116.811V41.8006H118.392C120.075 41.8006 120.833 40.7756 120.833 39.496C120.833 38.2164 120.075 37.2055 118.377 37.2055H115.936V44.4446ZM116.811 41.023V37.9831H118.349C119.524 37.9831 119.972 38.6265 119.972 39.496C119.972 40.3655 119.524 41.023 118.363 41.023H116.811Z" fill="#333333"/>
<path d="M128.538 40.825C128.538 38.5346 127.197 37.1065 125.349 37.1065C123.5 37.1065 122.159 38.5346 122.159 40.825C122.159 43.1155 123.5 44.5435 125.349 44.5435C127.197 44.5435 128.538 43.1155 128.538 40.825ZM127.691 40.825C127.691 42.7055 126.661 43.7235 125.349 43.7235C124.036 43.7235 123.006 42.7055 123.006 40.825C123.006 38.9446 124.036 37.9266 125.349 37.9266C126.661 37.9266 127.691 38.9446 127.691 40.825Z" fill="#333333"/>
<path d="M130.208 44.4446H132.819C134.527 44.4446 135.232 43.6104 135.232 42.5217C135.232 41.3765 134.442 40.7544 133.779 40.7119V40.6412C134.4 40.4716 134.95 40.0616 134.95 39.1284C134.95 38.068 134.244 37.2055 132.734 37.2055H130.208V44.4446ZM131.083 43.6669V41.1502H132.861C133.807 41.1502 134.4 41.7865 134.4 42.5217C134.4 43.1579 133.962 43.6669 132.819 43.6669H131.083ZM131.083 40.3867V37.9831H132.734C133.694 37.9831 134.117 38.4921 134.117 39.1284C134.117 39.8919 133.496 40.3867 132.706 40.3867H131.083Z" fill="#333333"/>
<path d="M137.744 40.2454V37.2055H136.869V44.4446H139.578C141.131 44.4446 141.978 43.568 141.978 42.3096C141.978 41.0513 141.131 40.2454 139.578 40.2454H137.744ZM137.744 41.023H139.578C140.566 41.023 141.117 41.6027 141.117 42.2955C141.117 43.0024 140.566 43.6811 139.578 43.6811H137.744V41.023ZM143.558 37.2055H142.683V44.4446H143.558V37.2055Z" fill="#333333"/>
<path d="M145.932 37.2055H144.902L147.231 40.825L144.902 44.4446H145.932L147.795 41.4896H147.852L149.714 44.4446H150.745L148.472 40.825L150.745 37.2055H149.714L147.852 40.2171H147.795L145.932 37.2055Z" fill="#333333"/>
<path d="M161.214 43.6104H160.466V37.2055H159.634V43.6387H155.908V37.2055H155.075V44.4446H160.212V46.1554H161.115L161.214 43.6104Z" fill="#333333"/>
<path d="M162.735 44.4446H167.153V43.6669H163.61V41.2068H166.87V40.4292H163.61V37.9831H167.096V37.2055H162.735V44.4446Z" fill="#333333"/>
<path d="M168.872 44.4446H169.747V41.2068H173.6V44.4446H174.475V37.2055H173.6V40.4292H169.747V37.2055H168.872V44.4446Z" fill="#333333"/>
<path d="M176.425 44.4446H177.3V41.2068H181.153V44.4446H182.028V37.2055H181.153V40.4292H177.3V37.2055H176.425V44.4446Z" fill="#333333"/>
<path d="M190.075 40.825C190.075 38.5346 188.735 37.1065 186.886 37.1065C185.037 37.1065 183.696 38.5346 183.696 40.825C183.696 43.1155 185.037 44.5435 186.886 44.5435C188.735 44.5435 190.075 43.1155 190.075 40.825ZM189.228 40.825C189.228 42.7055 188.198 43.7235 186.886 43.7235C185.573 43.7235 184.543 42.7055 184.543 40.825C184.543 38.9446 185.573 37.9266 186.886 37.9266C188.198 37.9266 189.228 38.9446 189.228 40.825Z" fill="#333333"/>
<path d="M197.56 39.4677C197.292 37.9831 196.106 37.1065 194.652 37.1065C192.804 37.1065 191.463 38.5346 191.463 40.825C191.463 43.1155 192.804 44.5435 194.652 44.5435C196.106 44.5435 197.292 43.6669 197.56 42.1824H196.685C196.473 43.1862 195.612 43.7235 194.652 43.7235C193.34 43.7235 192.31 42.7055 192.31 40.825C192.31 38.9446 193.34 37.9266 194.652 37.9266C195.612 37.9266 196.473 38.4639 196.685 39.4677H197.56Z" fill="#333333"/>
<path d="M198.777 37.9831H201.049V44.4446H201.924V37.9831H204.197V37.2055H198.777V37.9831Z" fill="#333333"/>
<path d="M205.746 44.4446H210.163V43.6669H206.621V41.2068H209.881V40.4292H206.621V37.9831H210.107V37.2055H205.746V44.4446Z" fill="#333333"/>
<path d="M211.882 37.2055V44.4446H212.729L216.667 38.7608H216.737V44.4446H217.612V37.2055H216.765L212.814 42.9034H212.743V37.2055H211.882ZM215.439 35.3958C215.439 35.7634 215.241 36.0886 214.747 36.0886C214.253 36.0886 214.07 35.7634 214.07 35.3958H213.294C213.294 36.1592 213.858 36.6965 214.747 36.6965C215.651 36.6965 216.215 36.1592 216.215 35.3958H215.439Z" fill="#333333"/>
</svg>
