<svg width="218" height="50" viewBox="0 0 218 50" fill="none" xmlns="http://www.w3.org/2000/svg">
<path d="M0 0H23.1058V23.1481H0V0Z" fill="#FFDA00"/>
<path d="M26.8027 0H49.9085V23.1481H26.8027V0Z" fill="white"/>
<path d="M26.8027 26.8518H49.9085V50H26.8027V26.8518Z" fill="#FFDA00"/>
<path d="M0 26.8518H23.1058V50H0V26.8518Z" fill="white"/>
<path d="M6.9834 18.0556H16.1227V15.4781H10.1514V12.7787H15.6554V10.1948H10.1514V7.50185H16.1227V4.92432H6.9834V18.0556Z" fill="black"/>
<path d="M41.041 36.0654H44.2475C43.9275 33.4494 41.5978 31.5964 38.5642 31.5964C35.0634 31.5964 32.2986 34.065 32.2986 38.3609C32.2986 42.5157 34.8458 45.0868 38.6026 45.0868C41.9754 45.0868 44.3883 42.9902 44.3883 39.4637V37.7261H38.737V40.0407H41.3354C41.3034 41.4257 40.3434 42.3041 38.6282 42.3041C36.6634 42.3041 35.5306 40.8486 35.5306 38.3224C35.5306 35.8154 36.7274 34.3791 38.6282 34.3791C39.8954 34.3791 40.7594 35.0011 41.041 36.0654Z" fill="black"/>
<path fill-rule="evenodd" clip-rule="evenodd" d="M33.0413 7.87049C33.0413 7.87451 33.0413 7.89236 33.06 7.93161C33.0807 7.97503 33.1254 8.04606 33.2167 8.13872C33.4056 8.33048 33.7362 8.55627 34.236 8.77085C35.2314 9.19824 36.6871 9.49086 38.3556 9.49086C40.0241 9.49086 41.4798 9.19824 42.4752 8.77085C42.975 8.55627 43.3056 8.33048 43.4945 8.13872C43.5858 8.04606 43.6306 7.97503 43.6512 7.93161C43.67 7.89236 43.6699 7.87461 43.6699 7.87059C43.6699 7.86657 43.67 7.84861 43.6512 7.80937C43.6306 7.76595 43.5858 7.69492 43.4945 7.60226C43.3056 7.41049 42.975 7.18471 42.4752 6.97013C41.4798 6.54273 40.0241 6.25012 38.3556 6.25012C36.6871 6.25012 35.2314 6.54273 34.236 6.97013C33.7362 7.18471 33.4056 7.41049 33.2167 7.60226C33.1254 7.69492 33.0807 7.76595 33.06 7.80937C33.0413 7.84861 33.0413 7.86647 33.0413 7.87049ZM33.3258 4.84248C34.6719 4.26451 36.451 3.9353 38.3556 3.9353C40.2602 3.9353 42.0393 4.26451 43.3854 4.84248C44.0564 5.13058 44.6732 5.50335 45.1391 5.97625C45.6098 6.45412 45.9805 7.09556 45.9805 7.87049C45.9805 8.64541 45.6098 9.28686 45.1391 9.76473C44.6732 10.2376 44.0564 10.6104 43.3854 10.8985C42.0393 11.4765 40.2602 11.8057 38.3556 11.8057C36.451 11.8057 34.6719 11.4765 33.3258 10.8985C32.6548 10.6104 32.038 10.2376 31.5721 9.76473C31.1014 9.28686 30.7307 8.64541 30.7307 7.87049C30.7307 7.09556 31.1014 6.45412 31.5721 5.97625C32.038 5.50335 32.6548 5.13058 33.3258 4.84248Z" fill="black"/>
<path fill-rule="evenodd" clip-rule="evenodd" d="M33.0413 11.5336C33.0413 11.5337 33.0413 11.5338 33.0413 11.5338C33.0413 11.5339 33.0413 11.5339 33.0413 11.534C33.0412 11.5399 33.0404 11.6362 33.2225 11.8237C33.4122 12.019 33.7428 12.2478 34.2416 12.4651C35.2354 12.898 36.689 13.1945 38.3556 13.1945C40.0222 13.1945 41.4759 12.898 42.4697 12.4651C42.9684 12.2478 43.2991 12.019 43.4887 11.8237C43.6708 11.6362 43.67 11.5399 43.6699 11.534L43.6699 11.5338L43.6699 11.5336C43.67 11.5263 43.6703 11.4527 43.5441 11.3047C43.4095 11.1468 43.1665 10.9503 42.7804 10.7501L43.8425 8.69434C44.8816 9.23312 45.9805 10.1613 45.9805 11.5338C45.9805 12.3084 45.6153 12.9534 45.1449 13.4378C44.6798 13.9168 44.063 14.2952 43.391 14.5879C42.0432 15.175 40.2621 15.5093 38.3556 15.5093C36.4491 15.5093 34.668 15.175 33.3203 14.5879C32.6482 14.2952 32.0314 13.9168 31.5663 13.4378C31.096 12.9534 30.7307 12.3084 30.7307 11.5338C30.7307 10.1613 31.8296 9.23312 32.8688 8.69434L33.9308 10.7501C33.5448 10.9503 33.3017 11.1468 33.1672 11.3047C33.0409 11.4527 33.0413 11.5263 33.0413 11.5336Z" fill="black"/>
<path fill-rule="evenodd" clip-rule="evenodd" d="M33.0413 15.2372C33.0413 15.2373 33.0413 15.2374 33.0413 15.2374C33.0413 15.2375 33.0413 15.2376 33.0413 15.2376C33.0412 15.2435 33.0404 15.3398 33.2225 15.5273C33.4122 15.7226 33.7428 15.9514 34.2416 16.1687C35.2354 16.6016 36.689 16.8981 38.3556 16.8981C40.0222 16.8981 41.4759 16.6016 42.4697 16.1687C42.9684 15.9514 43.2991 15.7226 43.4887 15.5273C43.6708 15.3398 43.67 15.2435 43.6699 15.2376L43.6699 15.2374L43.6699 15.2372C43.67 15.2299 43.6703 15.1564 43.5441 15.0083C43.4095 14.8504 43.1665 14.6539 42.7804 14.4538L43.8425 12.3979C44.8816 12.9367 45.9805 13.8649 45.9805 15.2374C45.9805 16.012 45.6153 16.657 45.1449 17.1414C44.6798 17.6204 44.063 17.9988 43.391 18.2915C42.0432 18.8786 40.2621 19.2129 38.3556 19.2129C36.4491 19.2129 34.668 18.8786 33.3203 18.2915C32.6482 17.9988 32.0314 17.6204 31.5663 17.1414C31.096 16.657 30.7307 16.012 30.7307 15.2374C30.7307 13.8649 31.8296 12.9367 32.8688 12.3979L33.9308 14.4538C33.5448 14.6539 33.3017 14.8504 33.1672 15.0083C33.0409 15.1564 33.0413 15.2299 33.0413 15.2372Z" fill="black"/>
<path fill-rule="evenodd" clip-rule="evenodd" d="M11.553 31.448L18.6941 36.5581L17.3511 38.4418L11.553 34.2927L5.75486 38.4418L4.41187 36.5581L11.553 31.448Z" fill="black"/>
<path fill-rule="evenodd" clip-rule="evenodd" d="M11.553 37.9294L18.6941 43.0396L17.3511 44.9232L11.553 40.7741L5.75486 44.9232L4.41187 43.0396L11.553 37.9294Z" fill="black"/>
<path d="M62.5767 23.6112H74.8411V20.4418H66.4137V16.1005H74.1765V12.9311H66.4137V8.59872H74.8057V5.42933H62.5767V23.6112Z" fill="white"/>
<path d="M81.6667 23.8686C83.6783 23.8686 84.981 22.9897 85.6456 21.7202H85.7519V23.6112H89.332V14.4137C89.332 11.1644 86.5849 9.79723 83.5543 9.79723C80.2932 9.79723 78.1487 11.3597 77.6259 13.8455L81.1173 14.1296C81.3743 13.2241 82.1807 12.5582 83.5365 12.5582C84.8215 12.5582 85.557 13.2063 85.557 14.3249V14.3782C85.557 15.2571 84.6265 15.3725 82.2605 15.6033C79.5665 15.8519 77.1473 16.7575 77.1473 19.8026C77.1473 22.5014 79.0703 23.8686 81.6667 23.8686ZM82.7479 21.2585C81.587 21.2585 80.754 20.717 80.754 19.6783C80.754 18.6129 81.6313 18.0891 82.9605 17.9027C83.7847 17.7873 85.1316 17.592 85.5836 17.2901V18.7372C85.5836 20.1665 84.405 21.2585 82.7479 21.2585Z" fill="white"/>
<path d="M103.586 13.8633C103.249 11.3509 101.229 9.79723 97.7904 9.79723C94.3078 9.79723 92.0126 11.413 92.0215 14.0408C92.0126 16.0827 93.2976 17.4055 95.956 17.9382L98.3132 18.4087C99.5007 18.6484 100.041 19.0835 100.059 19.767C100.041 20.5749 99.1639 21.152 97.8436 21.152C96.4966 21.152 95.6016 20.5749 95.3712 19.4652L91.6582 19.6605C92.0126 22.2706 94.228 23.8775 97.8347 23.8775C101.362 23.8775 103.887 22.0753 103.896 19.3853C103.887 17.4144 102.602 16.2337 99.9615 15.6921L97.498 15.195C96.2308 14.9197 95.7611 14.4847 95.77 13.8278C95.7611 13.011 96.6827 12.4783 97.8524 12.4783C99.1639 12.4783 99.9438 13.1974 100.13 14.0763L103.586 13.8633Z" fill="white"/>
<path d="M108.604 28.6982C111.413 28.6982 112.91 27.2688 113.673 25.0849L118.963 9.99254L114.966 9.97479L112.122 19.989H111.98L109.162 9.97479H105.192L110.075 24.0018L109.853 24.5788C109.322 25.8129 108.409 25.9016 107.08 25.4844L106.229 28.3164C106.769 28.5384 107.647 28.6982 108.604 28.6982Z" fill="white"/>
<path d="M138.775 11.3065H142.674C142.178 7.71094 139.015 5.18075 134.912 5.18075C130.117 5.18075 126.422 8.64311 126.422 14.538C126.422 20.2908 129.878 23.8597 134.991 23.8597C139.573 23.8597 142.843 20.9567 142.843 16.1715V13.881H135.248V16.7752H139.147C139.094 19.0302 137.561 20.4595 135.009 20.4595C132.129 20.4595 130.312 18.3022 130.312 14.5025C130.312 10.7205 132.2 8.58097 134.974 8.58097C136.95 8.58097 138.288 9.60192 138.775 11.3065Z" fill="white"/>
<path d="M149.535 23.8686C151.547 23.8686 152.85 22.9897 153.514 21.7202H153.621V23.6112H157.201V14.4137C157.201 11.1644 154.454 9.79723 151.423 9.79723C148.162 9.79723 146.017 11.3597 145.495 13.8455L148.986 14.1296C149.243 13.2241 150.049 12.5582 151.405 12.5582C152.69 12.5582 153.426 13.2063 153.426 14.3249V14.3782C153.426 15.2571 152.495 15.3725 150.129 15.6033C147.435 15.8519 145.016 16.7575 145.016 19.8026C145.016 22.5014 146.939 23.8686 149.535 23.8686ZM150.617 21.2585C149.456 21.2585 148.623 20.717 148.623 19.6783C148.623 18.6129 149.5 18.0891 150.829 17.9027C151.653 17.7873 153 17.592 153.452 17.2901V18.7372C153.452 20.1665 152.274 21.2585 150.617 21.2585Z" fill="white"/>
<path d="M160.129 23.6112H163.904V15.4258C163.904 13.9165 164.862 12.9134 166.12 12.9134C167.361 12.9134 168.194 13.7656 168.194 15.1062V23.6112H171.853V15.2837C171.853 13.8722 172.66 12.9134 174.033 12.9134C175.238 12.9134 176.142 13.668 176.142 15.1861V23.6112H179.909V14.4403C179.909 11.484 178.154 9.79723 175.62 9.79723C173.626 9.79723 172.075 10.8182 171.517 12.3807H171.375C170.941 10.8004 169.549 9.79723 167.68 9.79723C165.845 9.79723 164.454 10.7738 163.887 12.3807H163.727V9.97479H160.129V23.6112Z" fill="white"/>
<path d="M182.89 23.6112H186.665V9.97479H182.89V23.6112ZM184.787 8.21698C185.912 8.21698 186.834 7.35582 186.834 6.29936C186.834 5.25178 185.912 4.39062 184.787 4.39062C183.67 4.39062 182.749 5.25178 182.749 6.29936C182.749 7.35582 183.67 8.21698 184.787 8.21698Z" fill="white"/>
<path d="M193.465 15.7276C193.473 13.9698 194.519 12.94 196.043 12.94C197.559 12.94 198.471 13.9343 198.462 15.6033V23.6112H202.238V14.9286C202.238 11.7504 200.377 9.79723 197.541 9.79723C195.52 9.79723 194.058 10.7915 193.447 12.3807H193.287V9.97479H189.69V23.6112H193.465V15.7276Z" fill="white"/>
<path d="M211.345 28.9201C215.235 28.9201 218 27.1445 218 23.7443V9.97479H214.252V12.2653H214.11C213.605 11.1555 212.497 9.79723 210.22 9.79723C207.233 9.79723 204.708 12.1232 204.708 16.7663C204.708 21.3029 207.162 23.4158 210.228 23.4158C212.4 23.4158 213.614 22.3239 214.11 21.1964H214.269V23.6911C214.269 25.4755 213.073 26.2035 211.434 26.2035C209.768 26.2035 208.926 25.4755 208.616 24.7386L205.124 25.2092C205.576 27.2688 207.676 28.9201 211.345 28.9201ZM211.425 20.5749C209.573 20.5749 208.562 19.1012 208.562 16.7486C208.562 14.4315 209.555 12.8068 211.425 12.8068C213.259 12.8068 214.287 14.3604 214.287 16.7486C214.287 19.1545 213.241 20.5749 211.425 20.5749Z" fill="white"/>
<path d="M61.8743 44.4446H64.5839C66.1364 44.4446 66.9831 43.568 66.9831 42.3096C66.9831 41.0513 66.1364 40.2454 64.5839 40.2454H62.7493V37.9831H66.2352V37.2055H61.8743V44.4446ZM62.7493 43.6811V41.023H64.5839C65.5718 41.023 66.1223 41.6027 66.1223 42.2955C66.1223 43.0024 65.5718 43.6811 64.5839 43.6811H62.7493Z" fill="#CCCCCC"/>
<path d="M68.6222 37.2055V44.4446H69.469L73.4065 38.7608H73.4771V44.4446H74.3521V37.2055H73.5053L69.5537 42.9034H69.4831V37.2055H68.6222Z" fill="#CCCCCC"/>
<path d="M76.3017 44.4446H77.1767V41.8006H78.7573C80.4403 41.8006 81.1988 40.7756 81.1988 39.496C81.1988 38.2164 80.4403 37.2055 78.7432 37.2055H76.3017V44.4446ZM77.1767 41.023V37.9831H78.715C79.8899 37.9831 80.338 38.6265 80.338 39.496C80.338 40.3655 79.8899 41.023 78.7291 41.023H77.1767Z" fill="#CCCCCC"/>
<path d="M87.0833 37.2055H86.2083V40.415H85.3333L83.4563 37.2055H82.3978L84.543 40.6695L82.2002 44.4446H83.1881L85.1639 41.2351H86.2083V44.4446H87.0833V41.2351H88.1276L90.0893 44.4446H91.0914L88.7486 40.6837L90.9079 37.2055H89.8494L87.9724 40.415H87.0833V37.2055Z" fill="#CCCCCC"/>
<path d="M92.7331 44.4446L93.4599 42.3945H96.3813L97.1081 44.4446H98.0254L95.3722 37.2055H94.469L91.8158 44.4446H92.7331ZM93.7351 41.6168L94.8924 38.3508H94.9488L96.1061 41.6168H93.7351Z" fill="#CCCCCC"/>
<path d="M102.343 37.2055V44.4446H103.19L107.127 38.7608H107.198V44.4446H108.073V37.2055H107.226L103.274 42.9034H103.204V37.2055H102.343Z" fill="#CCCCCC"/>
<path d="M114.383 37.2055H110.022V44.4446H110.897V37.9831H114.383V37.2055Z" fill="#CCCCCC"/>
<path d="M115.936 44.4446H116.811V41.8006H118.391C120.074 41.8006 120.833 40.7756 120.833 39.496C120.833 38.2164 120.074 37.2055 118.377 37.2055H115.936V44.4446ZM116.811 41.023V37.9831H118.349C119.524 37.9831 119.972 38.6265 119.972 39.496C119.972 40.3655 119.524 41.023 118.363 41.023H116.811Z" fill="#CCCCCC"/>
<path d="M128.538 40.825C128.538 38.5346 127.197 37.1065 125.348 37.1065C123.5 37.1065 122.159 38.5346 122.159 40.825C122.159 43.1155 123.5 44.5435 125.348 44.5435C127.197 44.5435 128.538 43.1155 128.538 40.825ZM127.691 40.825C127.691 42.7055 126.661 43.7235 125.348 43.7235C124.036 43.7235 123.006 42.7055 123.006 40.825C123.006 38.9446 124.036 37.9266 125.348 37.9266C126.661 37.9266 127.691 38.9446 127.691 40.825Z" fill="#CCCCCC"/>
<path d="M130.208 44.4446H132.819C134.526 44.4446 135.232 43.6104 135.232 42.5217C135.232 41.3765 134.442 40.7544 133.778 40.7119V40.6412C134.399 40.4716 134.95 40.0616 134.95 39.1284C134.95 38.068 134.244 37.2055 132.734 37.2055H130.208V44.4446ZM131.083 43.6669V41.1502H132.861C133.807 41.1502 134.399 41.7865 134.399 42.5217C134.399 43.1579 133.962 43.6669 132.819 43.6669H131.083ZM131.083 40.3867V37.9831H132.734C133.694 37.9831 134.117 38.4921 134.117 39.1284C134.117 39.8919 133.496 40.3867 132.706 40.3867H131.083Z" fill="#CCCCCC"/>
<path d="M137.744 40.2454V37.2055H136.869V44.4446H139.578C141.131 44.4446 141.977 43.568 141.977 42.3096C141.977 41.0513 141.131 40.2454 139.578 40.2454H137.744ZM137.744 41.023H139.578C140.566 41.023 141.117 41.6027 141.117 42.2955C141.117 43.0024 140.566 43.6811 139.578 43.6811H137.744V41.023ZM143.558 37.2055H142.683V44.4446H143.558V37.2055Z" fill="#CCCCCC"/>
<path d="M145.932 37.2055H144.902L147.23 40.825L144.902 44.4446H145.932L147.795 41.4896H147.851L149.714 44.4446H150.744L148.472 40.825L150.744 37.2055H149.714L147.851 40.2171H147.795L145.932 37.2055Z" fill="#CCCCCC"/>
<path d="M161.214 43.6104H160.466V37.2055H159.633V43.6387H155.908V37.2055H155.075V44.4446H160.212V46.1554H161.115L161.214 43.6104Z" fill="#CCCCCC"/>
<path d="M162.735 44.4446H167.152V43.6669H163.61V41.2068H166.87V40.4292H163.61V37.9831H167.096V37.2055H162.735V44.4446Z" fill="#CCCCCC"/>
<path d="M168.872 44.4446H169.747V41.2068H173.599V44.4446H174.474V37.2055H173.599V40.4292H169.747V37.2055H168.872V44.4446Z" fill="#CCCCCC"/>
<path d="M176.425 44.4446H177.3V41.2068H181.153V44.4446H182.028V37.2055H181.153V40.4292H177.3V37.2055H176.425V44.4446Z" fill="#CCCCCC"/>
<path d="M190.075 40.825C190.075 38.5346 188.734 37.1065 186.885 37.1065C185.037 37.1065 183.696 38.5346 183.696 40.825C183.696 43.1155 185.037 44.5435 186.885 44.5435C188.734 44.5435 190.075 43.1155 190.075 40.825ZM189.228 40.825C189.228 42.7055 188.198 43.7235 186.885 43.7235C185.573 43.7235 184.543 42.7055 184.543 40.825C184.543 38.9446 185.573 37.9266 186.885 37.9266C188.198 37.9266 189.228 38.9446 189.228 40.825Z" fill="#CCCCCC"/>
<path d="M197.56 39.4677C197.291 37.9831 196.106 37.1065 194.652 37.1065C192.803 37.1065 191.463 38.5346 191.463 40.825C191.463 43.1155 192.803 44.5435 194.652 44.5435C196.106 44.5435 197.291 43.6669 197.56 42.1824H196.685C196.473 43.1862 195.612 43.7235 194.652 43.7235C193.34 43.7235 192.31 42.7055 192.31 40.825C192.31 38.9446 193.34 37.9266 194.652 37.9266C195.612 37.9266 196.473 38.4639 196.685 39.4677H197.56Z" fill="#CCCCCC"/>
<path d="M198.777 37.9831H201.049V44.4446H201.924V37.9831H204.196V37.2055H198.777V37.9831Z" fill="#CCCCCC"/>
<path d="M205.745 44.4446H210.163V43.6669H206.62V41.2068H209.881V40.4292H206.62V37.9831H210.106V37.2055H205.745V44.4446Z" fill="#CCCCCC"/>
<path d="M211.882 37.2055V44.4446H212.729L216.666 38.7608H216.737V44.4446H217.612V37.2055H216.765L212.814 42.9034H212.743V37.2055H211.882ZM215.439 35.3958C215.439 35.7634 215.241 36.0886 214.747 36.0886C214.253 36.0886 214.07 35.7634 214.07 35.3958H213.293C213.293 36.1592 213.858 36.6965 214.747 36.6965C215.65 36.6965 216.215 36.1592 216.215 35.3958H215.439Z" fill="#CCCCCC"/>
</svg>
