<svg xmlns="http://www.w3.org/2000/svg" width="15" height="14" fill="none" viewBox="0 0 15 14">
	<path fill="#FFDA00" d="M11.07 8.672c-.287-.298-.633-.458-1-.458-.364 0-.713.157-1.012.456l-.935.93c-.077-.041-.154-.08-.228-.118a3.758 3.758 0 0 1-.293-.157C6.726 8.77 5.93 8.046 5.167 7.11c-.37-.466-.619-.86-.799-1.258.243-.222.468-.452.687-.674l.248-.251c.621-.62.621-1.424 0-2.045l-.808-.807c-.092-.091-.186-.186-.275-.28a13.963 13.963 0 0 0-.556-.55C3.377.96 3.034.81 2.672.81c-.36 0-.71.15-1.006.434l-.006.006L.654 2.263a2.16 2.16 0 0 0-.642 1.374c-.07.863.184 1.667.379 2.193.48 1.291 1.195 2.488 2.264 3.77a13.921 13.921 0 0 0 4.637 3.626c.68.322 1.589.703 2.604.768.062.003.127.006.186.006.684 0 1.258-.245 1.707-.733.003-.006.01-.009.012-.015.154-.186.332-.354.518-.534.127-.122.258-.249.385-.382.293-.304.447-.658.447-1.022 0-.366-.157-.718-.456-1.013L11.07 8.672zm1.06 3.112c-.003 0-.003.003 0 0-.116.124-.234.236-.361.36a7.781 7.781 0 0 0-.571.591c-.3.32-.651.47-1.113.47-.044 0-.092 0-.136-.003-.879-.056-1.696-.399-2.308-.691a13.143 13.143 0 0 1-4.368-3.416C2.264 7.881 1.59 6.758 1.143 5.552.867 4.816.767 4.243.81 3.702c.03-.345.163-.632.408-.877l1.01-1.008c.145-.136.298-.21.45-.21.186 0 .337.113.431.207l.01.01c.18.168.351.342.532.528l.281.287.808.806c.314.314.314.603 0 .916-.086.086-.169.172-.255.255-.248.254-.485.49-.742.72-.006.006-.012.01-.015.015-.255.254-.207.503-.154.671l.009.027c.21.508.506.987.956 1.557l.003.003C5.359 8.613 6.22 9.396 7.17 9.996c.122.077.246.14.364.198.107.053.207.104.293.157.012.006.024.015.036.02.1.05.195.074.293.074.245 0 .4-.153.45-.204l1.011-1.01c.101-.1.26-.222.447-.222.184 0 .335.116.426.216l.006.006 1.63 1.628c.306.301.306.612.004.925zM7.567 3.33c.775.13 1.48.497 2.042 1.058a3.765 3.765 0 0 1 1.059 2.039c.033.195.201.33.394.33a.4.4 0 0 0 .397-.467 4.555 4.555 0 0 0-1.282-2.466 4.566 4.566 0 0 0-2.471-1.28.402.402 0 0 0-.462.325.395.395 0 0 0 .323.461zM13.994 6.176a7.494 7.494 0 0 0-2.11-4.063A7.512 7.512 0 0 0 7.815.006a.398.398 0 1 0-.13.786 6.727 6.727 0 0 1 3.637 1.882 6.69 6.69 0 0 1 1.885 3.632c.032.195.201.33.393.33a.392.392 0 0 0 .394-.46z"/>
</svg>