<svg xmlns="http://www.w3.org/2000/svg" width="47" height="58" viewBox="0 0 47 58">
	<path fill="#000" d="M44.632 5.892L25.742.324a7.913 7.913 0 0 0-4.484 0L2.368 5.892A3.32 3.32 0 0 0 0 9.058v15.634A35.473 35.473 0 0 0 6.232 44.84a35.673 35.673 0 0 0 16.02 12.914 3.31 3.31 0 0 0 2.497 0A35.672 35.672 0 0 0 40.768 44.84 35.474 35.474 0 0 0 47 24.692V9.058a3.32 3.32 0 0 0-2.368-3.166zm-.274 18.8c0 6.7-1.995 13.151-5.77 18.655a33.039 33.039 0 0 1-14.835 11.961.667.667 0 0 1-.506 0 33.037 33.037 0 0 1-14.835-11.96 32.845 32.845 0 0 1-5.77-18.656V9.058c0-.29.195-.551.474-.633l18.89-5.568a5.282 5.282 0 0 1 2.989 0l18.89 5.568a.664.664 0 0 1 .473.633v15.634z"/>
	<path fill="#000" d="M38.139 11.73L24.06 7.582a1.978 1.978 0 0 0-1.121 0l-14.078 4.15a1.992 1.992 0 0 0-1.421 1.9v11.061c0 5.845 1.769 11.451 5.115 16.213a28.437 28.437 0 0 0 10.027 8.816 1.977 1.977 0 0 0 1.835 0 28.439 28.439 0 0 0 10.026-8.816 28.048 28.048 0 0 0 5.116-16.213V13.631c0-.873-.585-1.654-1.421-1.9zm-1.221 12.962c0 5.3-1.603 10.38-4.636 14.695a25.801 25.801 0 0 1-8.782 7.83 25.803 25.803 0 0 1-8.782-7.83 25.422 25.422 0 0 1-4.635-14.695V14.124L23.5 10.17l13.418 3.955v10.568z"/>
</svg>